Amstelvar-Roman-XTRA-max.ufo
<glyph name="ampersand" format="2">
  <advance width="1669"/>
  <unicode hex="0026"/>
  <outline>
    <contour>
      <point x="562" y="-28" type="qcurve" smooth="yes"/>
      <point x="292" y="-27"/>
      <point x="55" y="206"/>
      <point x="62" y="354" type="qcurve" smooth="yes"/>
      <point x="67" y="473"/>
      <point x="261" y="675"/>
      <point x="548" y="822" type="qcurve" smooth="yes"/>
      <point x="723" y="910"/>
      <point x="906" y="1098"/>
      <point x="906" y="1202" type="qcurve" smooth="yes"/>
      <point x="906" y="1311"/>
      <point x="763" y="1442"/>
      <point x="641" y="1442" type="qcurve" smooth="yes"/>
      <point x="520" y="1442"/>
      <point x="379" y="1287"/>
      <point x="379" y="1187" type="qcurve" smooth="yes"/>
      <point x="379" y="1114"/>
      <point x="433" y="1012"/>
      <point x="488" y="971" type="qcurve" smooth="yes"/>
      <point x="564" y="912"/>
      <point x="826" y="764"/>
      <point x="908" y="683" type="qcurve" smooth="yes"/>
      <point x="986" y="605"/>
      <point x="1126" y="361"/>
      <point x="1191" y="267" type="qcurve" smooth="yes"/>
      <point x="1246" y="189"/>
      <point x="1361" y="79"/>
      <point x="1444" y="79" type="qcurve" smooth="yes"/>
      <point x="1530" y="79"/>
      <point x="1649" y="188"/>
      <point x="1688" y="245" type="qcurve"/>
      <point x="1737" y="202" type="line"/>
      <point x="1677" y="112"/>
      <point x="1505" y="-23"/>
      <point x="1405" y="-34" type="qcurve" smooth="yes"/>
      <point x="1296" y="-47"/>
      <point x="1163" y="37"/>
      <point x="1105" y="95" type="qcurve" smooth="yes"/>
      <point x="1051" y="150"/>
      <point x="853" y="482"/>
      <point x="778" y="554" type="qcurve" smooth="yes"/>
      <point x="702" y="628"/>
      <point x="422" y="802"/>
      <point x="355" y="860" type="qcurve" smooth="yes"/>
      <point x="285" y="924"/>
      <point x="208" y="1053"/>
      <point x="214" y="1174" type="qcurve" smooth="yes"/>
      <point x="220" y="1308"/>
      <point x="460" y="1517"/>
      <point x="647" y="1516" type="qcurve" smooth="yes"/>
      <point x="810" y="1515"/>
      <point x="992" y="1328"/>
      <point x="992" y="1201" type="qcurve" smooth="yes"/>
      <point x="992" y="1071"/>
      <point x="787" y="873"/>
      <point x="600" y="771" type="qcurve" smooth="yes"/>
      <point x="435" y="682"/>
      <point x="267" y="503"/>
      <point x="262" y="382" type="qcurve" smooth="yes"/>
      <point x="256" y="253"/>
      <point x="442" y="122"/>
      <point x="559" y="121" type="qcurve" smooth="yes"/>
      <point x="853" y="120"/>
      <point x="1300" y="402"/>
      <point x="1457" y="626" type="qcurve"/>
      <point x="1507" y="581" type="line"/>
      <point x="1375" y="361"/>
      <point x="830" y="-29"/>
    </contour>
  </outline>
</glyph>
<glyph name="colon" format="2">
  <advance width="664"/>
  <unicode hex="003A"/>
  <outline>
    <contour>
      <point x="188" y="121" type="qcurve" smooth="yes"/>
      <point x="188" y="179"/>
      <point x="269" y="265"/>
      <point x="332" y="265" type="qcurve" smooth="yes"/>
      <point x="395" y="265"/>
      <point x="476" y="179"/>
      <point x="476" y="121" type="qcurve" smooth="yes"/>
      <point x="476" y="64"/>
      <point x="395" y="-22"/>
      <point x="332" y="-22" type="qcurve" smooth="yes"/>
      <point x="269" y="-22"/>
      <point x="188" y="64"/>
    </contour>
    <contour>
      <point x="188" y="866" type="qcurve" smooth="yes"/>
      <point x="188" y="924"/>
      <point x="269" y="1010"/>
      <point x="332" y="1010" type="qcurve" smooth="yes"/>
      <point x="395" y="1010"/>
      <point x="476" y="924"/>
      <point x="476" y="866" type="qcurve" smooth="yes"/>
      <point x="476" y="809"/>
      <point x="395" y="723"/>
      <point x="332" y="723" type="qcurve" smooth="yes"/>
      <point x="269" y="723"/>
      <point x="188" y="809"/>
    </contour>
  </outline>
</glyph>
<glyph name="greater" format="2">
  <advance width="747"/>
  <unicode hex="003E"/>
  <outline>
    <contour>
      <point x="67" y="277" type="qcurve" smooth="yes"/>
      <point x="203" y="415"/>
      <point x="426" y="637"/>
      <point x="430" y="637" type="qcurve"/>
      <point x="426" y="637"/>
      <point x="200" y="854"/>
      <point x="71" y="983" type="qcurve" smooth="yes"/>
      <point x="13" y="1042"/>
      <point x="103" y="1125"/>
      <point x="169" y="1074" type="qcurve" smooth="yes"/>
      <point x="237" y="1021"/>
      <point x="704" y="645"/>
      <point x="708" y="640" type="qcurve"/>
      <point x="704" y="635"/>
      <point x="239" y="241"/>
      <point x="172" y="191" type="qcurve" smooth="yes"/>
      <point x="105" y="141"/>
      <point x="11" y="220"/>
    </contour>
  </outline>
</glyph>
<glyph name="at" format="2">
  <advance width="1825"/>
  <unicode hex="0040"/>
  <outline>
    <contour>
      <point x="85" y="726" type="qcurve" smooth="yes"/>
      <point x="85" y="1060"/>
      <point x="539" y="1520"/>
      <point x="933" y="1520" type="qcurve" smooth="yes"/>
      <point x="1297" y="1520"/>
      <point x="1763" y="1173"/>
      <point x="1763" y="863" type="qcurve" smooth="yes"/>
      <point x="1763" y="629"/>
      <point x="1506" y="349"/>
      <point x="1350" y="349" type="qcurve" smooth="yes"/>
      <point x="1267" y="349"/>
      <point x="1148" y="400"/>
      <point x="1124" y="460" type="qcurve"/>
      <point x="1073" y="398"/>
      <point x="885" y="317"/>
      <point x="782" y="317" type="qcurve" smooth="yes"/>
      <point x="668" y="317"/>
      <point x="524" y="452"/>
      <point x="524" y="546" type="qcurve" smooth="yes"/>
      <point x="524" y="665"/>
      <point x="832" y="826"/>
      <point x="1132" y="859" type="qcurve"/>
      <point x="1139" y="800" type="line"/>
      <point x="914" y="771"/>
      <point x="689" y="655"/>
      <point x="689" y="547" type="qcurve" smooth="yes"/>
      <point x="689" y="479"/>
      <point x="787" y="408"/>
      <point x="853" y="408" type="qcurve" smooth="yes"/>
      <point x="929" y="408"/>
      <point x="1078" y="487"/>
      <point x="1110" y="532" type="qcurve"/>
      <point x="1112" y="892" type="line" smooth="yes"/>
      <point x="1113" y="1036"/>
      <point x="1002" y="1139"/>
      <point x="911" y="1139" type="qcurve" smooth="yes"/>
      <point x="825" y="1139"/>
      <point x="707" y="1084"/>
      <point x="679" y="1051" type="qcurve"/>
      <point x="708" y="1034"/>
      <point x="745" y="992"/>
      <point x="747" y="969" type="qcurve" smooth="yes"/>
      <point x="751" y="932"/>
      <point x="713" y="884"/>
      <point x="674" y="884" type="qcurve" smooth="yes"/>
      <point x="635" y="884"/>
      <point x="588" y="952"/>
      <point x="588" y="1011" type="qcurve" smooth="yes"/>
      <point x="588" y="1094"/>
      <point x="792" y="1213"/>
      <point x="929" y="1213" type="qcurve" smooth="yes"/>
      <point x="1083" y="1213"/>
      <point x="1257" y="1043"/>
      <point x="1260" y="855" type="qcurve" smooth="yes"/>
      <point x="1265" y="463" type="line" smooth="yes"/>
      <point x="1265" y="443"/>
      <point x="1288" y="430"/>
      <point x="1321" y="430" type="qcurve" smooth="yes"/>
      <point x="1458" y="430"/>
      <point x="1621" y="638"/>
      <point x="1621" y="858" type="qcurve" smooth="yes"/>
      <point x="1621" y="1082"/>
      <point x="1270" y="1422"/>
      <point x="933" y="1422" type="qcurve" smooth="yes"/>
      <point x="586" y="1422"/>
      <point x="227" y="1050"/>
      <point x="228" y="738" type="qcurve" smooth="yes"/>
      <point x="230" y="443"/>
      <point x="613" y="64"/>
      <point x="937" y="64" type="qcurve" smooth="yes"/>
      <point x="1086" y="64"/>
      <point x="1294" y="136"/>
      <point x="1342" y="172" type="qcurve"/>
      <point x="1392" y="108" type="line"/>
      <point x="1328" y="57"/>
      <point x="1090" y="-30"/>
      <point x="927" y="-30" type="qcurve" smooth="yes"/>
      <point x="556" y="-30"/>
      <point x="85" y="398"/>
    </contour>
  </outline>
</glyph>
<glyph name="A" format="2">
  <advance width="1574"/>
  <unicode hex="0041"/>
  <outline>
    <contour>
      <point x="-26" y="0" type="line"/>
      <point x="-26" y="75" type="line"/>
      <point x="172" y="110" type="line"/>
      <point x="353" y="543" type="line"/>
      <point x="733" y="1508" type="line"/>
      <point x="842" y="1508" type="line"/>
      <point x="1214" y="595" type="line"/>
      <point x="1418" y="110" type="line"/>
      <point x="1605" y="75" type="line"/>
      <point x="1605" y="0" type="line"/>
      <point x="1031" y="0" type="line"/>
      <point x="1031" y="75" type="line"/>
      <point x="1220" y="106" type="line"/>
      <point x="1075" y="500" type="line"/>
      <point x="750" y="1264" type="line"/>
      <point x="437" y="509" type="line"/>
      <point x="294" y="105" type="line"/>
      <point x="480" y="75" type="line"/>
      <point x="480" y="0" type="line"/>
    </contour>
    <contour>
      <point x="768" y="552" type="line"/>
      <point x="1152" y="567" type="line"/>
      <point x="1181" y="474" type="line"/>
      <point x="768" y="474" type="line"/>
    </contour>
    <contour>
      <point x="368" y="474" type="line"/>
      <point x="404" y="566" type="line"/>
      <point x="773" y="552" type="line"/>
      <point x="773" y="474" type="line"/>
    </contour>
  </outline>
</glyph>
<glyph name="L" format="2">
  <advance width="1313"/>
  <unicode hex="004C"/>
  <outline>
    <contour>
      <point x="82" y="0" type="line"/>
      <point x="82" y="75" type="line"/>
      <point x="301" y="107" type="line"/>
      <point x="303" y="754" type="line"/>
      <point x="301" y="1381" type="line"/>
      <point x="82" y="1415" type="line"/>
      <point x="82" y="1500" type="line"/>
      <point x="725" y="1500" type="line"/>
      <point x="725" y="1415" type="line"/>
      <point x="481" y="1381" type="line"/>
      <point x="479" y="754" type="line"/>
      <point x="481" y="107" type="line"/>
      <point x="525" y="81" type="line"/>
      <point x="1132" y="81" type="line"/>
      <point x="1224" y="391" type="line"/>
      <point x="1313" y="391" type="line"/>
      <point x="1262" y="0" type="line"/>
    </contour>
  </outline>
</glyph>
<glyph name="N" format="2">
  <advance width="1654"/>
  <unicode hex="004E"/>
  <outline>
    <contour>
      <point x="82" y="0" type="line"/>
      <point x="82" y="75" type="line"/>
      <point x="301" y="110" type="line"/>
      <point x="303" y="754" type="line"/>
      <point x="301" y="1381" type="line"/>
      <point x="82" y="1415" type="line"/>
      <point x="82" y="1500" type="line"/>
      <point x="502" y="1500" type="line"/>
      <point x="922" y="832" type="line"/>
      <point x="1269" y="314" type="line"/>
      <point x="1272" y="754" type="line"/>
      <point x="1270" y="1381" type="line"/>
      <point x="1029" y="1415" type="line"/>
      <point x="1029" y="1500" type="line"/>
      <point x="1581" y="1500" type="line"/>
      <point x="1581" y="1415" type="line"/>
      <point x="1362" y="1381" type="line"/>
      <point x="1360" y="755" type="line"/>
      <point x="1356" y="0" type="line"/>
      <point x="1262" y="0" type="line"/>
      <point x="786" y="743" type="line"/>
      <point x="392" y="1342" type="line"/>
      <point x="390" y="754" type="line"/>
      <point x="392" y="110" type="line"/>
      <point x="620" y="75" type="line"/>
      <point x="620" y="0" type="line"/>
    </contour>
  </outline>
</glyph>
<glyph name="Y" format="2">
  <advance width="1331"/>
  <unicode hex="0059"/>
  <outline>
    <contour>
      <point x="-39" y="1415" type="line"/>
      <point x="-39" y="1500" type="line"/>
      <point x="509" y="1500" type="line"/>
      <point x="509" y="1415" type="line"/>
      <point x="344" y="1380" type="line"/>
      <point x="526" y="1053" type="line"/>
      <point x="713" y="763" type="line"/>
      <point x="895" y="1072" type="line"/>
      <point x="1070" y="1387" type="line"/>
      <point x="874" y="1415" type="line"/>
      <point x="874" y="1500" type="line"/>
      <point x="1370" y="1500" type="line"/>
      <point x="1370" y="1415" type="line"/>
      <point x="1193" y="1388" type="line"/>
      <point x="971" y="1021" type="line"/>
      <point x="760" y="660" type="line"/>
      <point x="762" y="110" type="line"/>
      <point x="992" y="75" type="line"/>
      <point x="992" y="0" type="line"/>
      <point x="349" y="0" type="line"/>
      <point x="349" y="75" type="line"/>
      <point x="582" y="110" type="line"/>
      <point x="584" y="648" type="line"/>
      <point x="385" y="977" type="line"/>
      <point x="131" y="1389" type="line"/>
    </contour>
  </outline>
</glyph>
<glyph name="c" format="2">
  <advance width="1018"/>
  <unicode hex="0063"/>
  <outline>
    <contour>
      <point x="64" y="488" type="qcurve" smooth="yes"/>
      <point x="64" y="693"/>
      <point x="339" y="990"/>
      <point x="571" y="990" type="qcurve" smooth="yes"/>
      <point x="639" y="990"/>
      <point x="782" y="949"/>
      <point x="822" y="922" type="qcurve"/>
      <point x="859" y="980" type="line"/>
      <point x="926" y="959" type="line"/>
      <point x="942" y="647" type="line"/>
      <point x="868" y="633" type="line"/>
      <point x="848" y="716" type="line" smooth="yes"/>
      <point x="827" y="797"/>
      <point x="676" y="906"/>
      <point x="578" y="906" type="qcurve" smooth="yes"/>
      <point x="426" y="906"/>
      <point x="243" y="705"/>
      <point x="243" y="502" type="qcurve" smooth="yes"/>
      <point x="243" y="288"/>
      <point x="455" y="87"/>
      <point x="624" y="87" type="qcurve" smooth="yes"/>
      <point x="748" y="87"/>
      <point x="911" y="160"/>
      <point x="970" y="214" type="qcurve"/>
      <point x="1010" y="168" type="line"/>
      <point x="959" y="105"/>
      <point x="753" y="-22"/>
      <point x="584" y="-22" type="qcurve" smooth="yes"/>
      <point x="366" y="-22"/>
      <point x="64" y="247"/>
    </contour>
  </outline>
</glyph>
<glyph name="f" format="2">
  <advance width="656"/>
  <unicode hex="0066"/>
  <outline>
    <contour>
      <point x="57" y="0" type="line"/>
      <point x="57" y="59" type="line"/>
      <point x="235" y="94" type="line"/>
      <point x="236" y="511" type="line"/>
      <point x="233" y="857" type="line"/>
      <point x="68" y="868" type="line"/>
      <point x="58" y="938" type="line"/>
      <point x="235" y="955" type="line"/>
      <point x="239" y="1291" type="line" smooth="yes"/>
      <point x="240" y="1396"/>
      <point x="373" y="1519"/>
      <point x="479" y="1519" type="qcurve" smooth="yes"/>
      <point x="517" y="1519"/>
      <point x="595" y="1511"/>
      <point x="625" y="1504" type="qcurve" smooth="yes"/>
      <point x="644" y="1499" type="line"/>
      <point x="630" y="1418" type="line"/>
      <point x="606" y="1425" type="line"/>
      <point x="596" y="1427"/>
      <point x="562" y="1433"/>
      <point x="541" y="1433" type="qcurve" smooth="yes"/>
      <point x="469" y="1433"/>
      <point x="395" y="1353"/>
      <point x="396" y="1271" type="qcurve" smooth="yes"/>
      <point x="398" y="957" type="line"/>
      <point x="628" y="957" type="line"/>
      <point x="628" y="879" type="line"/>
      <point x="398" y="868" type="line"/>
      <point x="400" y="511" type="line"/>
      <point x="414" y="94" type="line"/>
      <point x="609" y="59" type="line"/>
      <point x="609" y="0" type="line"/>
    </contour>
  </outline>
</glyph>
<glyph name="j" format="2">
  <advance width="578"/>
  <unicode hex="006A"/>
  <outline>
    <contour>
      <point x="-103" y="-393" type="line"/>
      <point x="-68" y="-340" type="line"/>
      <point x="-54" y="-349" type="line" smooth="yes"/>
      <point x="-24" y="-367"/>
      <point x="62" y="-388"/>
      <point x="107" y="-388" type="qcurve" smooth="yes"/>
      <point x="177" y="-388"/>
      <point x="244" y="-309"/>
      <point x="244" y="-197" type="qcurve" smooth="yes"/>
      <point x="242" y="487" type="line"/>
      <point x="235" y="834" type="line"/>
      <point x="56" y="864" type="line"/>
      <point x="56" y="934" type="line"/>
      <point x="346" y="968" type="line"/>
      <point x="394" y="968" type="line"/>
      <point x="417" y="930" type="line"/>
      <point x="410" y="487" type="line"/>
      <point x="412" y="-216" type="line" smooth="yes"/>
      <point x="413" y="-353"/>
      <point x="265" y="-492"/>
      <point x="163" y="-492" type="qcurve" smooth="yes"/>
      <point x="75" y="-492"/>
      <point x="-53" y="-445"/>
      <point x="-92" y="-404" type="qcurve" smooth="yes"/>
    </contour>
    <contour>
      <point x="191" y="1305" type="qcurve" smooth="yes"/>
      <point x="191" y="1365"/>
      <point x="256" y="1431"/>
      <point x="318" y="1431" type="qcurve" smooth="yes"/>
      <point x="377" y="1431"/>
      <point x="446" y="1361"/>
      <point x="446" y="1305" type="qcurve" smooth="yes"/>
      <point x="446" y="1246"/>
      <point x="381" y="1180"/>
      <point x="318" y="1180" type="qcurve" smooth="yes"/>
      <point x="260" y="1180"/>
      <point x="191" y="1250"/>
    </contour>
  </outline>
</glyph>
<glyph name="currency" format="2">
  <advance width="1436"/>
  <unicode hex="00A4"/>
  <outline>
    <contour>
      <point x="165" y="798" type="qcurve" smooth="yes"/>
      <point x="165" y="1013"/>
      <point x="470" y="1320"/>
      <point x="715" y="1320" type="qcurve" smooth="yes"/>
      <point x="962" y="1320"/>
      <point x="1270" y="1033"/>
      <point x="1270" y="804" type="qcurve" smooth="yes"/>
      <point x="1270" y="590"/>
      <point x="967" y="277"/>
      <point x="722" y="277" type="qcurve" smooth="yes"/>
      <point x="476" y="277"/>
      <point x="165" y="567"/>
    </contour>
    <contour>
      <point x="324" y="820" type="qcurve" smooth="yes"/>
      <point x="325" y="635"/>
      <point x="536" y="374"/>
      <point x="713" y="374" type="qcurve" smooth="yes"/>
      <point x="903" y="374"/>
      <point x="1105" y="611"/>
      <point x="1105" y="804" type="qcurve" smooth="yes"/>
      <point x="1105" y="981"/>
      <point x="894" y="1216"/>
      <point x="715" y="1216" type="qcurve" smooth="yes"/>
      <point x="524" y="1216"/>
      <point x="323" y="1002"/>
    </contour>
    <contour>
      <point x="343" y="1079" type="line"/>
      <point x="77" y="1334" type="line"/>
      <point x="168" y="1430" type="line"/>
      <point x="435" y="1176" type="line"/>
    </contour>
    <contour>
      <point x="1114" y="1079" type="line"/>
      <point x="1023" y="1176" type="line"/>
      <point x="1291" y="1430" type="line"/>
      <point x="1382" y="1334" type="line"/>
    </contour>
    <contour>
      <point x="345" y="497" type="line"/>
      <point x="436" y="400" type="line"/>
      <point x="168" y="147" type="line"/>
      <point x="77" y="242" type="line"/>
    </contour>
    <contour>
      <point x="1111" y="501" type="line"/>
      <point x="1382" y="242" type="line"/>
      <point x="1291" y="147" type="line"/>
      <point x="1020" y="404" type="line"/>
    </contour>
  </outline>
</glyph>
<glyph name="eth" format="2">
  <advance width="1225"/>
  <unicode hex="00F0"/>
  <outline>
    <contour>
      <point x="64" y="476" type="qcurve" smooth="yes"/>
      <point x="64" y="687"/>
      <point x="363" y="975"/>
      <point x="597" y="975" type="qcurve" smooth="yes"/>
      <point x="823" y="975"/>
      <point x="1075" y="701"/>
      <point x="1093" y="494" type="qcurve"/>
      <point x="976" y="494" type="line"/>
      <point x="975" y="649"/>
      <point x="772" y="889"/>
      <point x="600" y="889" type="qcurve" smooth="yes"/>
      <point x="430" y="889"/>
      <point x="244" y="693"/>
      <point x="245" y="488" type="qcurve" smooth="yes"/>
      <point x="246" y="299"/>
      <point x="442" y="58"/>
      <point x="608" y="59" type="qcurve" smooth="yes"/>
      <point x="792" y="60"/>
      <point x="981" y="337"/>
      <point x="981" y="608" type="qcurve" smooth="yes"/>
      <point x="981" y="975"/>
      <point x="614" y="1409"/>
      <point x="295" y="1507" type="qcurve"/>
      <point x="320" y="1580" type="line"/>
      <point x="726" y="1465"/>
      <point x="1164" y="945"/>
      <point x="1164" y="616" type="qcurve" smooth="yes"/>
      <point x="1164" y="332"/>
      <point x="871" y="-22"/>
      <point x="614" y="-22" type="qcurve" smooth="yes"/>
      <point x="368" y="-22"/>
      <point x="64" y="248"/>
    </contour>
    <contour>
      <point x="461" y="1207" type="line"/>
      <point x="947" y="1524" type="line"/>
      <point x="1002" y="1450" type="line"/>
      <point x="516" y="1133" type="line"/>
    </contour>
  </outline>
</glyph>
<glyph name="thorn" format="2">
  <advance width="1209"/>
  <unicode hex="00FE"/>
  <outline>
    <contour>
      <point x="28" y="-480" type="line"/>
      <point x="28" y="-421" type="line"/>
      <point x="181" y="-386" type="line"/>
      <point x="180" y="429" type="line"/>
      <point x="175" y="1399" type="line"/>
      <point x="-2" y="1429" type="line"/>
      <point x="-2" y="1500" type="line"/>
      <point x="292" y="1534" type="line"/>
      <point x="317" y="1534" type="line"/>
      <point x="345" y="1503" type="line"/>
      <point x="344" y="834" type="line"/>
      <point x="398" y="902"/>
      <point x="576" y="988"/>
      <point x="703" y="988" type="qcurve" smooth="yes"/>
      <point x="893" y="988"/>
      <point x="1141" y="731"/>
      <point x="1141" y="513" type="qcurve" smooth="yes"/>
      <point x="1141" y="276"/>
      <point x="884" y="-12"/>
      <point x="668" y="-12" type="qcurve" smooth="yes"/>
      <point x="556" y="-12"/>
      <point x="395" y="48"/>
      <point x="347" y="92" type="qcurve"/>
      <point x="350" y="-386" type="line"/>
      <point x="512" y="-421" type="line"/>
      <point x="512" y="-480" type="line"/>
    </contour>
    <contour>
      <point x="345" y="201" type="line"/>
      <point x="385" y="144"/>
      <point x="536" y="65"/>
      <point x="647" y="65" type="qcurve" smooth="yes"/>
      <point x="793" y="65"/>
      <point x="958" y="294"/>
      <point x="958" y="491" type="qcurve" smooth="yes"/>
      <point x="958" y="680"/>
      <point x="793" y="892"/>
      <point x="649" y="892" type="qcurve" smooth="yes"/>
      <point x="542" y="892"/>
      <point x="389" y="808"/>
      <point x="343" y="736" type="qcurve"/>
      <point x="339" y="444" type="line"/>
    </contour>
  </outline>
</glyph>
<glyph name="Germandbls" format="2">
  <advance width="1531"/>
  <unicode hex="1E9E"/>
  <outline>
    <contour>
      <point x="168" y="756" type="line"/>
      <point x="166" y="1068" type="line" smooth="yes"/>
      <point x="165" y="1303"/>
      <point x="439" y="1524"/>
      <point x="648" y="1524" type="qcurve" smooth="yes"/>
      <point x="762" y="1524"/>
      <point x="921" y="1504"/>
      <point x="1008" y="1494" type="qcurve"/>
      <point x="1010" y="1410" type="line"/>
      <point x="886" y="1417"/>
      <point x="715" y="1290"/>
      <point x="715" y="1180" type="qcurve" smooth="yes"/>
      <point x="715" y="1082"/>
      <point x="884" y="948"/>
      <point x="1090" y="866" type="qcurve" smooth="yes"/>
      <point x="1273" y="792"/>
      <point x="1504" y="580"/>
      <point x="1504" y="413" type="qcurve" smooth="yes"/>
      <point x="1504" y="224"/>
      <point x="1261" y="-20"/>
      <point x="1080" y="-20" type="qcurve" smooth="yes"/>
      <point x="939" y="-20"/>
      <point x="734" y="65"/>
      <point x="681" y="122" type="qcurve"/>
      <point x="632" y="0" type="line"/>
      <point x="554" y="0" type="line"/>
      <point x="554" y="451" type="line"/>
      <point x="638" y="451" type="line"/>
      <point x="657" y="348" type="line" smooth="yes"/>
      <point x="684" y="206"/>
      <point x="899" y="71"/>
      <point x="1034" y="71" type="qcurve" smooth="yes"/>
      <point x="1183" y="71"/>
      <point x="1354" y="233"/>
      <point x="1354" y="366" type="qcurve" smooth="yes"/>
      <point x="1354" y="500"/>
      <point x="1198" y="637"/>
      <point x="986" y="718" type="qcurve" smooth="yes"/>
      <point x="796" y="793"/>
      <point x="589" y="976"/>
      <point x="589" y="1133" type="qcurve" smooth="yes"/>
      <point x="589" y="1234"/>
      <point x="690" y="1377"/>
      <point x="754" y="1414" type="qcurve"/>
      <point x="661" y="1417" type="line" smooth="yes"/>
      <point x="501" y="1421"/>
      <point x="347" y="1259"/>
      <point x="346" y="1018" type="qcurve" smooth="yes"/>
      <point x="344" y="760" type="line"/>
      <point x="346" y="-395" type="line"/>
      <point x="568" y="-427" type="line"/>
      <point x="568" y="-500" type="line"/>
      <point x="-24" y="-500" type="line"/>
      <point x="-24" y="-427" type="line"/>
      <point x="166" y="-390" type="line"/>
    </contour>
  </outline>
</glyph>
<glyph name="emdash" format="2">
  <advance width="2154"/>
  <unicode hex="2014"/>
  <outline>
    <contour>
      <point x="256" y="566" type="line"/>
      <point x="256" y="667" type="line"/>
      <point x="1077" y="668" type="line"/>
      <point x="1898" y="667" type="line"/>
      <point x="1898" y="566" type="line"/>
      <point x="1077" y="562" type="line"/>
    </contour>
  </outline>
</glyph>
<glyph name="quotedblleft" format="2">
  <advance width="1053"/>
  <unicode hex="201C"/>
  <outline>
    <contour>
      <point x="469" y="1519" type="line"/>
      <point x="429" y="1489"/>
      <point x="305" y="1359"/>
      <point x="284" y="1276" type="qcurve"/>
      <point x="364" y="1297"/>
      <point x="465" y="1224"/>
      <point x="465" y="1157" type="qcurve" smooth="yes"/>
      <point x="465" y="1098"/>
      <point x="385" y="1018"/>
      <point x="321" y="1018" type="qcurve" smooth="yes"/>
      <point x="262" y="1018"/>
      <point x="169" y="1108"/>
      <point x="169" y="1193" type="qcurve" smooth="yes"/>
      <point x="169" y="1307"/>
      <point x="332" y="1505"/>
      <point x="436" y="1558" type="qcurve"/>
    </contour>
    <contour>
      <point x="916" y="1519" type="line"/>
      <point x="876" y="1489"/>
      <point x="752" y="1359"/>
      <point x="731" y="1276" type="qcurve"/>
      <point x="811" y="1297"/>
      <point x="913" y="1224"/>
      <point x="913" y="1157" type="qcurve" smooth="yes"/>
      <point x="913" y="1098"/>
      <point x="832" y="1018"/>
      <point x="768" y="1018" type="qcurve" smooth="yes"/>
      <point x="709" y="1018"/>
      <point x="617" y="1108"/>
      <point x="617" y="1193" type="qcurve" smooth="yes"/>
      <point x="617" y="1307"/>
      <point x="779" y="1505"/>
      <point x="883" y="1558" type="qcurve"/>
    </contour>
  </outline>
</glyph>
<glyph name="rupeeIndian" format="2">
  <advance width="1172"/>
  <unicode hex="20B9"/>
  <outline>
    <contour>
      <point x="-37" y="1511" type="line"/>
      <point x="590" y="1496" type="line"/>
      <point x="1212" y="1514" type="line"/>
      <point x="1180" y="1400" type="line"/>
      <point x="763" y="1410" type="line"/>
      <point x="816" y="1367"/>
      <point x="872" y="1232"/>
      <point x="872" y="1149" type="qcurve" smooth="yes"/>
      <point x="872" y="994"/>
      <point x="681" y="779"/>
      <point x="538" y="747" type="qcurve"/>
      <point x="670" y="645"/>
      <point x="812" y="433"/>
      <point x="860" y="335" type="qcurve" smooth="yes"/>
      <point x="933" y="184"/>
      <point x="1072" y="89"/>
      <point x="1178" y="95" type="qcurve"/>
      <point x="1176" y="20" type="line"/>
      <point x="957" y="-6" type="line"/>
      <point x="849" y="1"/>
      <point x="747" y="116"/>
      <point x="679" y="274" type="qcurve" smooth="yes"/>
      <point x="606" y="450"/>
      <point x="423" y="692"/>
      <point x="279" y="739" type="qcurve"/>
      <point x="106" y="729" type="line"/>
      <point x="85" y="827" type="line"/>
      <point x="356" y="827" type="line" smooth="yes"/>
      <point x="525" y="827"/>
      <point x="675" y="1005"/>
      <point x="675" y="1136" type="qcurve" smooth="yes"/>
      <point x="675" y="1237"/>
      <point x="589" y="1391"/>
      <point x="490" y="1416" type="qcurve"/>
      <point x="-9" y="1406" type="line"/>
    </contour>
    <contour>
      <point x="803" y="1142" type="line"/>
      <point x="811" y="1151" type="line"/>
      <point x="1110" y="1159" type="line"/>
      <point x="1079" y="1052" type="line"/>
      <point x="783" y="1046" type="line"/>
      <point x="783" y="1055" type="line"/>
      <point x="19" y="1052" type="line"/>
      <point x="-10" y="1156" type="line"/>
    </contour>
  </outline>
</glyph>
<glyph name="trademark" format="2">
  <advance width="2108"/>
  <unicode hex="2122"/>
  <outline>
    <contour>
      <point x="40" y="1222" type="line"/>
      <point x="40" y="1500" type="line"/>
      <point x="880" y="1500" type="line"/>
      <point x="880" y="1222" type="line"/>
      <point x="802" y="1222" type="line"/>
      <point x="761" y="1413" type="line"/>
      <point x="563" y="1413" type="line"/>
      <point x="534" y="1392" type="line"/>
      <point x="532" y="1056" type="line"/>
      <point x="532" y="808" type="line"/>
      <point x="669" y="772" type="line"/>
      <point x="669" y="700" type="line"/>
      <point x="239" y="700" type="line"/>
      <point x="239" y="772" type="line"/>
      <point x="377" y="808" type="line"/>
      <point x="377" y="1056" type="line"/>
      <point x="375" y="1392" type="line"/>
      <point x="355" y="1413" type="line"/>
      <point x="160" y="1413" type="line"/>
      <point x="119" y="1222" type="line"/>
    </contour>
    <contour>
      <point x="924" y="702" type="line"/>
      <point x="924" y="771" type="line"/>
      <point x="1050" y="806" type="line"/>
      <point x="1052" y="1056" type="line"/>
      <point x="1050" y="1386" type="line"/>
      <point x="924" y="1420" type="line"/>
      <point x="924" y="1500" type="line"/>
      <point x="1239" y="1500" type="line"/>
      <point x="1487" y="858" type="line"/>
      <point x="1748" y="1500" type="line"/>
      <point x="2057" y="1500" type="line"/>
      <point x="2057" y="1420" type="line"/>
      <point x="1941" y="1386" type="line"/>
      <point x="1939" y="1054" type="line"/>
      <point x="1941" y="804" type="line"/>
      <point x="2057" y="769" type="line"/>
      <point x="2057" y="700" type="line"/>
      <point x="1680" y="700" type="line"/>
      <point x="1680" y="769" type="line"/>
      <point x="1785" y="804" type="line"/>
      <point x="1788" y="1054" type="line"/>
      <point x="1785" y="1370" type="line"/>
      <point x="1509" y="692" type="line"/>
      <point x="1401" y="692" type="line"/>
      <point x="1130" y="1378" type="line"/>
      <point x="1127" y="1056" type="line"/>
      <point x="1130" y="806" type="line"/>
      <point x="1255" y="771" type="line"/>
      <point x="1255" y="702" type="line"/>
    </contour>
  </outline>
</glyph>
<glyph name="leftanglebracket" format="2">
  <advance width="1042"/>
  <unicode hex="27E8"/>
  <outline>
    <contour>
      <point x="962" y="1506" type="line"/>
      <point x="1025" y="1450" type="line"/>
      <point x="195" y="711" type="line"/>
      <point x="1028" y="-95" type="line"/>
      <point x="950" y="-162" type="line"/>
      <point x="24" y="623" type="line"/>
      <point x="24" y="801" type="line"/>
    </contour>
  </outline>
</glyph>
<glyph name="engn" format="2">
  <advance width="1291"/>
  <outline>
    <contour>
      <point x="76" y="0" type="line"/>
      <point x="76" y="59" type="line"/>
      <point x="233" y="94" type="line"/>
      <point x="235" y="519" type="line"/>
      <point x="233" y="834" type="line"/>
      <point x="76" y="864" type="line"/>
      <point x="76" y="936" type="line"/>
      <point x="342" y="970" type="line"/>
      <point x="378" y="944" type="line"/>
      <point x="402" y="824" type="line"/>
      <point x="470" y="899"/>
      <point x="669" y="991"/>
      <point x="774" y="991" type="qcurve" smooth="yes"/>
      <point x="934" y="991"/>
      <point x="1097" y="842"/>
      <point x="1097" y="712" type="qcurve" smooth="yes"/>
      <point x="1097" y="647"/>
      <point x="1092" y="506"/>
      <point x="1092" y="495" type="qcurve"/>
      <point x="1090" y="0" type="line"/>
      <point x="927" y="0" type="line"/>
      <point x="928" y="496" type="line"/>
      <point x="928" y="699" type="line" smooth="yes"/>
      <point x="929" y="785"/>
      <point x="816" y="877"/>
      <point x="715" y="877" type="qcurve" smooth="yes"/>
      <point x="617" y="877"/>
      <point x="450" y="793"/>
      <point x="402" y="725" type="qcurve"/>
      <point x="402" y="497" type="line"/>
      <point x="404" y="94" type="line"/>
      <point x="550" y="59" type="line"/>
      <point x="550" y="0" type="line"/>
    </contour>
  </outline>
</glyph>
<glyph name="two.tnum" format="2">
  <advance width="1012"/>
  <outline>
    <contour>
      <point x="61" y="0" type="line"/>
      <point x="61" y="122" type="line"/>
      <point x="85" y="246"/>
      <point x="253" y="492"/>
      <point x="417" y="637" type="qcurve" smooth="yes"/>
      <point x="584" y="785"/>
      <point x="711" y="992"/>
      <point x="711" y="1143" type="qcurve" smooth="yes"/>
      <point x="711" y="1283"/>
      <point x="593" y="1424"/>
      <point x="491" y="1424" type="qcurve" smooth="yes"/>
      <point x="368" y="1424"/>
      <point x="182" y="1320"/>
      <point x="110" y="1225" type="qcurve"/>
      <point x="56" y="1290" type="line"/>
      <point x="127" y="1387"/>
      <point x="339" y="1520"/>
      <point x="509" y="1520" type="qcurve" smooth="yes"/>
      <point x="691" y="1520"/>
      <point x="909" y="1321"/>
      <point x="909" y="1134" type="qcurve" smooth="yes"/>
      <point x="909" y="925"/>
      <point x="613" y="644"/>
      <point x="499" y="563" type="qcurve" smooth="yes"/>
      <point x="366" y="470"/>
      <point x="196" y="266"/>
      <point x="171" y="183" type="qcurve"/>
      <point x="182" y="171" type="line"/>
      <point x="951" y="171" type="line"/>
      <point x="951" y="0" type="line"/>
    </contour>
  </outline>
</glyph>
